<svg xmlns="http://www.w3.org/2000/svg" width="139" height="50" fill="none" viewBox="0 0 139 50" class="Header-styles__Logo-sc-eb98df62-5 hhYryk"><path fill="#F48E3D" d="M21.947 39.707c.124 1.197-.721 2.294-1.914 2.419s-2.287-.723-2.411-1.92c-.05-.524-.249-1.946.174-3.292.547-1.746 1.715-3.417 1.715-3.417s-.2 1.82.646 2.968c.77 1.072 1.64 1.82 1.79 3.242M19.81 27.039c-.15-.125-.274-.25-.423-.35-2.187-1.57-3.927-1.745-5.07-1.745h-.82a4.17 4.17 0 0 0-3.132 1.422c.77.299 1.839.523 2.808.698.92.174 1.765.324 2.46.574 2.536.922 3.953 2.144 4.25 3.616.05.274.05.523.026.748.1 0 .223-.025.323-.025q.447 0 .82.074c.075 0 .15.05.224.05.174.05.373.075.547.15.099.025.174.075.273.1.15.05.273.124.398.174.074.05.149.075.248.125.124.075.224.125.323.2.075.05.125.074.2.124.099.075.173.125.248.175.05.025.1.075.124.1.075.05.124.1.174.15 0 0 .05.024.05.05l.074.074s-1.317-4.215-4.126-6.534z"></path><path fill="#F48E3D" d="M12.08 28.336c-.92-.174-1.79-.399-2.51-.748a4.3 4.3 0 0 0-.324 1.596 4.23 4.23 0 0 0 4.226 4.24c.845 0 3.057-.649 4.92-1.098.075-.25.1-.499.05-.773-.099-.474-.422-.923-.994-1.347-1.566-.947-1.79.35-3.927.15-.1 0-.397-.1-.397-.1a1.457 1.457 0 0 1-1.07-1.77l.05-.15z"></path><path fill="#fff" d="M17.398 34.046c-1.913.5-3.156.798-3.927.798-3.107 0-5.642-2.543-5.642-5.66 0-.823.2-1.596.497-2.32a19.7 19.7 0 0 1-3.653-3.142 7.7 7.7 0 0 0-1.989 1.77c-1.168 1.447-1.416 3.193-1.416 3.193s.522-1.122 1.391-1.696c1.119-.773 1.964-.773 1.964-.773s-1.914 1.596-3.405 4.713C.273 32.9 0 35.243 0 35.243s.646-1.221 1.765-2.094c.994-.773 1.193-.748 1.193-.748s-.87.847-1.89 3.566c-.372.997-.471 1.77-.496 2.344 0 0 1.913 1.322 4.92 2.045-.024-.499-.049-1.073 0-1.571.075-1.222.697-2.32.697-2.32s-.274 2.17 1.143 4.215c.746.1 1.541.15 2.361.15a4 4 0 0 0 .547-.05c0-.05-.05-.1-.074-.125-.572-1.097-.622-2.344-.622-2.344s.572 1.322 2.013 2.369c1.815-.25 3.38-.773 4.524-1.247-.05-.773-.025-1.845.298-2.918.274-.922.721-1.795 1.094-2.469-.05 0-.075 0-.124.025zM9.097 25.692c1.044-1.296 2.61-2.144 4.375-2.144h.845c1.317 0 3.38.2 5.89 1.995.05.025.075.075.125.124 1.118-2.568 1.615-2.892 1.615-2.892s-5.79-2.22-14.987.1a18 18 0 0 0-.895.274c.671.698 1.715 1.67 3.032 2.568z"></path><path fill="url(#paint0_linear_27781_10323)" d="m15.212 16.041-.323.574-.323.548h1.292l-.323-.548z"></path><path fill="url(#paint1_linear_27781_10323)" d="M16.155 14.396a.67.67 0 0 0-.67.673.67.67 0 0 0 .67.673.67.67 0 0 0 .671-.673.67.67 0 0 0-.67-.674"></path><path fill="url(#paint2_linear_27781_10323)" d="M14.938 15.069a.67.67 0 0 0-.67-.674.67.67 0 0 0-.672.674.67.67 0 0 0 .671.673.67.67 0 0 0 .671-.673"></path><path fill="url(#paint3_linear_27781_10323)" d="M25.924 13.148a4.23 4.23 0 0 1-3.132 1.397c-1.242 0-2.46-.599-3.23-1.521a1 1 0 0 1-.2-.25c-.05-.05-.074-.124-.124-.174-.373-.549-.67-1.147-.92-1.646-.323-.649-.62-1.247-.994-1.746-.05-.075-.149-.15-.223-.224l-.2-.2c-.074-.075-.148-.124-.248-.2l-.447-.299-.15-.074a3 3 0 0 0-.62-.225c-.025 0-.05 0-.075-.025-.249-.05-.497-.1-.77-.1-1.517 0-2.784.998-3.232 2.395 0 .024-.025.05-.05.1v.1c-.05.199-.074.423-.099.623v.199c0 .324.05.624.15.923.049.15.074.274.074.274s-.124-.075-.298-.175c-.1-.05-.175-.074-.274-.1-.074-.024-.124-.074-.224-.074v.025c-.149-.025-.298-.1-.472-.1a2.247 2.247 0 0 0-2.237 2.245c0 .349.075.648.224.947a4 4 0 0 1-1.64.35c-.1 0-.224 0-.324-.026h-.124a4 4 0 0 1-.77-.15h-.05a6 6 0 0 1-.696-.274 4.43 4.43 0 0 1-1.616-1.496c-.149-.25-.248-.399-.248-.399s-1.293 4.688 2.883 8.629c0 0 3.505-1.546 10.116-1.646 4.598-.05 6.96 1.172 6.96 1.172s1.764-1.297 2.758-3.84c.845-2.145.547-4.315.547-4.34zm-9.345 3.99v1.148h-2.71v-1.148c-.67-.449-1.143-1.172-1.143-2.045a2.51 2.51 0 0 1 2.51-2.518 2.51 2.51 0 0 1 2.51 2.519c0 .872-.471 1.595-1.142 2.044z"></path><path fill="#fff" d="M37.218 25.856V14.914L37 13.158h9.9c.943 0 1.705.11 2.285.293.58.22 1.016.475 1.306.841a3.1 3.1 0 0 1 .58 1.208c.109.476.145.951.145 1.464v1.72c0 .695-.109 1.317-.326 1.903a2.62 2.62 0 0 1-1.197 1.39c-.58.366-1.45.512-2.539.512h-1.487c-.906 0-1.74 0-2.502-.073s-1.342-.073-1.74-.11v3.477h-4.171zm4.17-6.22h4.424c.472 0 .798-.11.98-.294.18-.183.29-.476.29-.915V17.33c0-.403-.073-.732-.254-.915s-.508-.293-.98-.293h-4.424v3.477zM53.585 25.856V13.158h3.95v12.698zM74.077 25.856c-.559 0-1.153-.072-1.817-.252q-.996-.27-1.992-1.295l-.874-.899a10 10 0 0 0-1.188-1.043 4.8 4.8 0 0 0-1.293-.612c-.49-.144-1.083-.216-1.817-.216h-.175v4.101h-4.018V14.885l-.21-1.726h9.54c.874 0 1.573.108 2.132.324.559.215.943.503 1.258.863.28.36.49.755.594 1.223.105.468.175.9.175 1.367v.396q0 1.295-.63 2.266c-.419.647-1.083 1.151-1.991 1.439.35.216.664.432.978.647.315.216.664.432 1.049.684a4.7 4.7 0 0 0 1.258.575c.384.108.733.18.978.216.28 0 .42.036.454.036l-.629 2.41s-.419.072-.733.144c-.35.036-.7.072-1.084.072zm-6.744-7.122h1.013c.314 0 .629 0 .874-.072.454-.072.769-.216.943-.468.175-.252.245-.54.245-.9v-.215c0-.324-.07-.54-.245-.72-.174-.18-.49-.251-.943-.251h-4.264v2.554c.35 0 .734 0 1.118.036h1.259zM97.82 25.856v-9.77h-4.746v-2.928H106.5v2.927h-4.815v9.771zM108.869 25.856V13.158h13.301v2.936h-9.254v1.798h6.861v3.01h-6.861v2.018h8.937l1.232 2.716s-.176.11-.563.147c-.388.037-1.021.073-1.936.073zM39.815 39.348c-.962 0-1.64-.034-2.102-.137-.464-.07-.677-.172-.677-.276l1.247-2.614c.32.068.997.103 1.995.137s2.316.069 3.919.069h1.675c.498 0 .82-.069.997-.206.178-.138.25-.344.25-.585v-.207c0-.31-.072-.55-.25-.654s-.499-.172-.997-.172h-4.81c-1.425 0-2.459-.24-3.1-.757Q37 33.174 37 31.47v-.722c0-.585.107-1.136.356-1.652.25-.482.642-.894 1.176-1.204.57-.31 1.318-.447 2.316-.447h6.983c.855 0 1.568.034 2.138.137q.855.155.855.31l-.641 2.512c-.392-.035-1.14-.07-2.21-.138a127 127 0 0 0-4.132-.069h-1.497c-.427 0-.748.034-.926.138-.178.103-.285.344-.285.654v.137c0 .31.107.516.285.654.214.137.499.172.962.172h4.596c.89 0 1.675.103 2.28.275.606.172 1.105.482 1.461.964.32.447.499 1.135.499 2.064v.723c0 .997-.285 1.823-.82 2.442s-1.46.93-2.814.93zM56.396 39.348l-4.39-11.904h4.355l2.056 6.778.452 1.755h.21l.278-1.17 2.126-7.363h4.703l2.23 7.363.384 1.17h.209l.487-1.755 1.882-6.778h4.32l-.208 1.204-4.216 10.666H66.57l-2.16-6.537-.419-1.686h-.209l-.383 1.686-2.16 6.537h-4.774zM94.069 39.348V29.09l-.206-1.646h9.352c.889 0 1.609.103 2.157.274.547.206.959.446 1.233.79.274.342.445.72.548 1.131.102.446.137.892.137 1.373v1.612c0 .652-.103 1.235-.308 1.784a2.46 2.46 0 0 1-1.13 1.304c-.549.343-1.371.48-2.398.48h-1.405c-.855 0-1.644 0-2.362-.069-.72-.068-1.268-.068-1.645-.102v3.259h-3.939zm3.939-5.832h4.179c.445 0 .753-.103.924-.274s.274-.446.274-.858v-1.03c0-.377-.068-.685-.239-.857-.172-.172-.48-.274-.926-.274h-4.178v3.259z"></path><path fill="#F48E3D" d="M88.652 13.158h-5.338l-6.036 12.698h4.326l1.117-2.312h6.49l1.011 2.312h4.431zm-2.407 8.588v-2.092h-3.49v-1.688h3.49v-2.092l3.035 2.936zM86.283 27.444h-5.338l-6.036 11.904h4.326l1.117-2.167h6.49l1.011 2.167h4.43zm.593 5.298v.792h-3.454v1.96l-3.035-2.752 3.035-2.752v1.96h3.454z"></path><defs><linearGradient id="paint0_linear_27781_10323" x1="14.566" x2="15.858" y1="16.602" y2="16.602" gradientUnits="userSpaceOnUse"><stop stop-color="#E97649"></stop><stop offset="1" stop-color="#FFA434"></stop></linearGradient><linearGradient id="paint1_linear_27781_10323" x1="15.484" x2="16.826" y1="15.069" y2="15.069" gradientUnits="userSpaceOnUse"><stop stop-color="#E97649"></stop><stop offset="1" stop-color="#FFA434"></stop></linearGradient><linearGradient id="paint2_linear_27781_10323" x1="13.596" x2="14.938" y1="15.069" y2="15.069" gradientUnits="userSpaceOnUse"><stop stop-color="#E97649"></stop><stop offset="1" stop-color="#FFA434"></stop></linearGradient><linearGradient id="paint3_linear_27781_10323" x1="2.496" x2="26" y1="14.869" y2="14.869" gradientUnits="userSpaceOnUse"><stop stop-color="#E97649"></stop><stop offset="1" stop-color="#FFA434"></stop></linearGradient></defs></svg>
